<svg width="40" height="40" viewBox="0 0 40 40" fill="none" xmlns="http://www.w3.org/2000/svg">
<circle cx="20" cy="20" r="20" fill="#F0F3F6"/>
<path d="M25.2047 15.9652C25.8508 15.9652 26.3747 15.4414 26.3747 14.7952C26.3747 14.1491 25.8508 13.6252 25.2047 13.6252C24.5585 13.6252 24.0347 14.1491 24.0347 14.7952C24.0347 15.4414 24.5585 15.9652 25.2047 15.9652Z" fill="#405261"/>
<path d="M19.9998 14.9934C19.0096 14.9934 18.0416 15.287 17.2183 15.8372C16.3949 16.3873 15.7532 17.1692 15.3743 18.0841C14.9953 18.9989 14.8962 20.0056 15.0894 20.9768C15.2825 21.948 15.7594 22.8401 16.4596 23.5402C17.1598 24.2404 18.0519 24.7173 19.023 24.9105C19.9942 25.1036 21.0009 25.0045 21.9157 24.6255C22.8306 24.2466 23.6125 23.6049 24.1626 22.7816C24.7128 21.9582 25.0064 20.9902 25.0064 20C25.0064 18.6722 24.4789 17.3987 23.54 16.4598C22.6011 15.5209 21.3276 14.9934 19.9998 14.9934ZM19.9998 23.25C19.357 23.25 18.7286 23.0594 18.1942 22.7023C17.6597 22.3452 17.2432 21.8376 16.9972 21.2438C16.7512 20.6499 16.6868 19.9964 16.8122 19.366C16.9376 18.7356 17.2472 18.1565 17.7017 17.7019C18.1562 17.2474 18.7353 16.9379 19.3657 16.8125C19.9962 16.6871 20.6497 16.7514 21.2435 16.9974C21.8374 17.2434 22.345 17.66 22.7021 18.1944C23.0592 18.7289 23.2498 19.3572 23.2498 20C23.2498 20.862 22.9074 21.6886 22.2979 22.2981C21.6884 22.9076 20.8617 23.25 19.9998 23.25Z" fill="#405261"/>
<path d="M20 12.0066C22.6032 12.0066 22.912 12.0164 23.9398 12.0635C24.558 12.0708 25.1703 12.1843 25.7501 12.3991C26.1707 12.5613 26.5526 12.8098 26.8714 13.1286C27.1902 13.4474 27.4387 13.8293 27.6009 14.2499C27.8157 14.8297 27.9292 15.442 27.9365 16.0602C27.9836 17.088 27.9934 17.3967 27.9934 20.0008C27.9934 22.6049 27.9836 22.912 27.9365 23.9398C27.9292 24.558 27.8157 25.1703 27.6009 25.7501C27.4387 26.1707 27.1902 26.5526 26.8714 26.8714C26.5526 27.1902 26.1707 27.4387 25.7501 27.6009C25.1703 27.8157 24.558 27.9292 23.9398 27.9365C22.912 27.9836 22.6032 27.9934 20 27.9934C17.3968 27.9934 17.088 27.9836 16.0602 27.9365C15.442 27.9292 14.8297 27.8157 14.2499 27.6009C13.8293 27.4387 13.4474 27.1902 13.1286 26.8714C12.8098 26.5526 12.5613 26.1707 12.3991 25.7501C12.1843 25.1703 12.0708 24.558 12.0635 23.9398C12.0164 22.912 12.0066 22.6032 12.0066 20C12.0066 17.3968 12.0164 17.088 12.0635 16.0602C12.0708 15.442 12.1843 14.8297 12.3991 14.2499C12.5613 13.8293 12.8098 13.4474 13.1286 13.1286C13.4474 12.8098 13.8293 12.5613 14.2499 12.3991C14.8297 12.1843 15.442 12.0708 16.0602 12.0635C17.088 12.0164 17.3968 12.0066 20 12.0066V12.0066ZM20 10.25C17.3521 10.25 17.0198 10.2614 15.9798 10.3085C15.1711 10.3248 14.3711 10.4781 13.6138 10.7619C12.966 11.0124 12.3777 11.3954 11.8866 11.8866C11.3954 12.3777 11.0124 12.966 10.7619 13.6138C10.478 14.3714 10.3247 15.1717 10.3085 15.9806C10.2614 17.0206 10.25 17.3513 10.25 20C10.25 22.6487 10.2614 22.9802 10.3085 24.0202C10.3248 24.8289 10.4781 25.6289 10.7619 26.3863C11.0124 27.034 11.3954 27.6223 11.8866 28.1134C12.3777 28.6046 12.966 28.9876 13.6138 29.2381C14.3714 29.522 15.1717 29.6753 15.9806 29.6915C17.0206 29.7386 17.3521 29.75 20 29.75C22.6479 29.75 22.9802 29.7386 24.0202 29.6915C24.8291 29.6753 25.6294 29.522 26.3871 29.2381C27.0348 28.9876 27.6232 28.6046 28.1143 28.1134C28.6054 27.6223 28.9884 27.034 29.2389 26.3863C29.5225 25.6286 29.6755 24.8283 29.6915 24.0194C29.7386 22.9794 29.75 22.6487 29.75 20C29.75 17.3513 29.7386 17.0198 29.6915 15.9798C29.6752 15.1711 29.5219 14.3711 29.2381 13.6138C28.9876 12.966 28.6046 12.3777 28.1134 11.8866C27.6223 11.3954 27.034 11.0124 26.3863 10.7619C25.6286 10.4783 24.8283 10.3253 24.0194 10.3093C22.9794 10.2606 22.6487 10.25 20 10.25Z" fill="#405261"/>
</svg>
