<svg width="40" height="40" viewBox="0 0 40 40" fill="none" xmlns="http://www.w3.org/2000/svg">
<circle cx="20" cy="20" r="20" fill="#F0F3F6"/>
<path d="M13.188 14.376C14.3964 14.376 15.376 13.3964 15.376 12.188C15.376 10.9796 14.3964 10 13.188 10C11.9796 10 11 10.9796 11 12.188C11 13.3964 11.9796 14.376 13.188 14.376Z" fill="#405261"/>
<path d="M17.4428 16.0344V28.1734H21.2118V22.1704C21.2118 20.5864 21.5098 19.0524 23.4738 19.0524C25.4108 19.0524 25.4348 20.8634 25.4348 22.2704V28.1744H29.2058V21.5174C29.2058 18.2474 28.5018 15.7344 24.6798 15.7344C22.8448 15.7344 21.6148 16.7414 21.1118 17.6944H21.0608V16.0344H17.4428V16.0344ZM11.3008 16.0344H15.0758V28.1734H11.3008V16.0344Z" fill="#405261"/>
</svg>
