<svg width="40" height="40" viewBox="0 0 40 40" fill="none" xmlns="http://www.w3.org/2000/svg">
<circle cx="20" cy="20" r="20" fill="#F0F3F6"/>
<path d="M16.1213 29.0001H23.8793C24.5616 29.0001 25.2159 28.729 25.6984 28.2466C26.1808 27.7642 26.4518 27.1098 26.4518 26.4276V15.7476H23.8793V26.4276H13.5488C13.5488 27.1098 13.8199 27.7642 14.3023 28.2466C14.7847 28.729 15.4391 29.0001 16.1213 29.0001Z" fill="#405261"/>
<path d="M23.8793 11H16.1213C15.4391 11 14.7847 11.271 14.3023 11.7535C13.8199 12.2359 13.5488 12.8902 13.5488 13.5725V24.2525H16.1213V13.5725H26.4518C26.4518 12.8902 26.1808 12.2359 25.6984 11.7535C25.2159 11.271 24.5616 11 23.8793 11Z" fill="#405261"/>
</svg>
